<mxfile host="app.diagrams.net" modified="2023-04-17T09:21:23.549Z" agent="5.0 (Macintosh; Intel Mac OS X 10_15_7) AppleWebKit/537.36 (KHTML, like Gecko) Chrome/112.0.0.0 Safari/537.36" etag="Nl8tP_IMib0haTEefS8T" version="20.8.20" type="github">
  <diagram name="第 1 页" id="lY27o9XK98TL-Oemo2O3">
    <mxGraphModel dx="929" dy="653" grid="1" gridSize="10" guides="1" tooltips="1" connect="1" arrows="1" fold="1" page="1" pageScale="1" pageWidth="827" pageHeight="1169" math="0" shadow="0">
      <root>
        <mxCell id="0" />
        <mxCell id="1" parent="0" />
        <mxCell id="YJtvQBIUZpEgkb6-Raop-7" value="" style="rounded=1;whiteSpace=wrap;html=1;fillColor=#ffe6cc;strokeColor=#d79b00;" vertex="1" parent="1">
          <mxGeometry x="600" y="70" width="190" height="280" as="geometry" />
        </mxCell>
        <mxCell id="YJtvQBIUZpEgkb6-Raop-1" value="taier-ui" style="rounded=1;whiteSpace=wrap;html=1;fillColor=#dae8fc;strokeColor=#6c8ebf;" vertex="1" parent="1">
          <mxGeometry x="190" y="80" width="90" height="270" as="geometry" />
        </mxCell>
        <mxCell id="YJtvQBIUZpEgkb6-Raop-2" value="taier-data-develop" style="rounded=1;whiteSpace=wrap;html=1;fillColor=#d5e8d4;strokeColor=#82b366;" vertex="1" parent="1">
          <mxGeometry x="380" y="80" width="120" height="270" as="geometry" />
        </mxCell>
        <mxCell id="YJtvQBIUZpEgkb6-Raop-3" value="" style="html=1;shadow=0;dashed=0;align=center;verticalAlign=middle;shape=mxgraph.arrows2.arrow;dy=0.6;dx=40;notch=0;fillColor=#dae8fc;strokeColor=#6c8ebf;" vertex="1" parent="1">
          <mxGeometry x="290" y="200" width="80" height="30" as="geometry" />
        </mxCell>
        <mxCell id="YJtvQBIUZpEgkb6-Raop-4" value="" style="html=1;shadow=0;dashed=0;align=center;verticalAlign=middle;shape=mxgraph.arrows2.arrow;dy=0.6;dx=40;notch=0;fillColor=#d5e8d4;strokeColor=#82b366;" vertex="1" parent="1">
          <mxGeometry x="510" y="200" width="80" height="30" as="geometry" />
        </mxCell>
        <mxCell id="YJtvQBIUZpEgkb6-Raop-5" value="flink112-standalone" style="rounded=1;whiteSpace=wrap;html=1;fillColor=#fff2cc;strokeColor=#d6b656;" vertex="1" parent="1">
          <mxGeometry x="645" y="100" width="120" height="60" as="geometry" />
        </mxCell>
        <mxCell id="YJtvQBIUZpEgkb6-Raop-6" value="yarn-2-hdfs2-flink112" style="rounded=1;whiteSpace=wrap;html=1;fillColor=#fff2cc;strokeColor=#d6b656;" vertex="1" parent="1">
          <mxGeometry x="645" y="180" width="120" height="60" as="geometry" />
        </mxCell>
        <mxCell id="YJtvQBIUZpEgkb6-Raop-8" value="..........." style="rounded=1;whiteSpace=wrap;html=1;fillColor=#fff2cc;strokeColor=#d6b656;" vertex="1" parent="1">
          <mxGeometry x="645" y="260" width="120" height="60" as="geometry" />
        </mxCell>
      </root>
    </mxGraphModel>
  </diagram>
</mxfile>
